<?xml version="1.0" encoding="UTF-8"?>
<svg width="498px" height="557px" viewBox="0 0 498 557" version="1.1" xmlns="http://www.w3.org/2000/svg" xmlns:xlink="http://www.w3.org/1999/xlink">
    <!-- Generator: Sketch 46 (44423) - http://www.bohemiancoding.com/sketch -->
    <title>Page 1</title>
    <desc>Created with Sketch.</desc>
    <defs>
        <polygon id="path-1" points="0 556.682464 497.834123 556.682464 497.834123 -2.84217094e-14 0 -2.84217094e-14"></polygon>
    </defs>
    <g id="Page-2" stroke="none" stroke-width="1" fill="none" fill-rule="evenodd">
        <g id="App-icon" transform="translate(-262.000000, -234.000000)">
            <g id="Page-1" transform="translate(262.000000, 234.000000)">
                <path d="M242.869668,120.898104 C251.654028,127.627962 385.736967,215.701422 385.736967,341.575829 C385.736967,457.36019 325.969194,521.959716 192.867299,521.959716 C59.7654028,521.959716 0,457.36019 0,341.575829 C0,215.701422 134.082938,127.627962 142.864929,120.898104 L192.867299,120.898104 L242.869668,120.898104 Z" id="Fill-1" fill="#CAB384"></path>
                <path d="M383.293365,305.933649 C363.426066,181.63981 251.655924,90.9834123 242.869194,84.2511848 L286.852607,17.2701422 C265.930806,-4.35545024 264.449763,8.11848341 239.788626,17.2701422 C215.395261,26.3222749 213.992417,-2.84217094e-14 192.869194,-2.84217094e-14 C171.745972,-2.84217094e-14 170.340758,26.3222749 145.945024,17.2701422 C121.286256,8.11848341 119.807583,-4.35545024 98.8834123,17.2701422 L142.866825,84.2511848 C134.082464,90.9810427 22.3123223,181.637441 2.44265403,305.933649 C-14.7374408,413.414692 59.7672986,476.677725 192.869194,476.677725 C325.96872,476.677725 400.47346,413.414692 383.293365,305.933649" id="Fill-3" fill="#EACE97"></path>
                <path d="M192.867299,109.227962 C171.694313,109.227962 150.523697,104.645024 130.803318,95.4815166 L139.36019,77.0597156 C173.364929,92.8654028 212.369668,92.8630332 246.376777,77.0620853 C251.464455,74.6924171 257.50237,76.9056872 259.862559,81.9909953 C262.229858,87.078673 260.021327,93.1165877 254.933649,95.4815166 C235.21327,104.645024 214.040284,109.227962 192.867299,109.227962" id="Fill-5" fill="#4D4D4F"></path>
                <path d="M245.519431,182.304739 C244.17109,182.304739 242.803791,181.968246 241.543128,181.259716 C237.633175,179.055924 236.246919,174.105687 238.448341,170.193365 C256.95545,137.304739 232.235071,95.7004739 231.981517,95.2834123 C230.336967,92.5630332 230.424645,89.1270142 232.216114,86.4990521 C234.002844,83.8734597 237.152133,82.5274882 240.291943,83.0582938 C242.417536,83.4208531 292.557346,92.6886256 307.829858,157.764455 C308.858294,162.131754 306.145024,166.506161 301.777725,167.532227 C297.410427,168.544076 293.038389,165.847393 292.012322,161.477725 C284.578673,129.80237 267.8109,113.93981 254.81327,106.167299 C261.422275,124.380569 267.002844,152.577251 252.607109,178.162559 C251.116588,180.814218 248.358294,182.304739 245.519431,182.304739" id="Fill-7" fill="#4D4D4F"></path>
                <path d="M142.090521,328.068246 C149.187678,331.25545 155.704265,333.568246 161.640284,335.016114 C167.576303,336.463981 172.682938,337.191469 176.95545,337.191469 C180.720853,337.191469 183.943602,336.269668 186.623697,334.421327 C189.299052,332.580095 190.642654,330.025592 190.642654,326.772038 C190.642654,325.978199 190.550237,325.163033 190.370142,324.333649 C190.187678,323.499526 189.915166,322.722275 189.554976,321.999526 C189.192417,321.274408 188.614218,320.352607 187.818009,319.231754 C187.019431,318.1109 186.332227,317.26019 185.754028,316.681991 C185.17346,316.103791 182.858294,313.857346 178.801422,309.952133 C167.216114,298.743602 159.505213,290.821801 155.666351,286.1891 C152.697156,282.575355 150.398578,278.54218 148.770616,274.089573 C147.140284,269.641706 146.327488,265.281517 146.327488,261.013744 C146.327488,257.68673 146.81564,254.414218 147.791943,251.196209 C148.770616,247.978199 150.199526,244.918957 152.083412,242.025592 C153.967299,239.134597 156.227962,236.527962 158.872512,234.210427 C161.512322,231.89763 164.410427,229.999526 167.562085,228.518483 C170.711374,227.035071 175.398578,225.494787 181.626066,223.90237 C181.770616,221.589573 181.844076,220.212796 181.844076,219.779147 L181.732701,212.717536 L181.732701,200.336019 C189.628436,200.482938 196.180569,200.549289 201.393839,200.549289 C207.187678,200.549289 213.704265,200.482938 220.945972,200.336019 C220.583412,208.373934 220.400948,213.080095 220.400948,214.456872 L220.400948,223.795735 C227.569194,224.812322 234.630806,226.293365 241.581043,228.245972 C242.088152,239.947393 242.775355,252.075355 243.645024,264.634597 C237.780095,261.954502 232.367773,260.037441 227.408057,258.881043 C222.448341,257.719905 218.339336,257.139336 215.078673,257.139336 C211.38673,257.139336 208.325118,257.994787 205.903318,259.693839 C203.474408,261.39763 202.263507,263.587204 202.263507,266.262559 C202.263507,268.580095 202.967299,270.75545 204.381991,272.781517 C205.791943,274.807583 207.803791,277.054028 210.408057,279.516114 C219.820379,288.352607 226.756398,295.407109 231.209005,300.693839 C235.661611,305.980569 238.794313,310.997156 240.604739,315.736493 C242.412796,320.480569 243.318009,325.170142 243.318009,329.802844 C243.318009,333.644076 242.829858,337.243602 241.853555,340.608531 C240.874882,343.975829 239.445972,347.072986 237.562085,349.895261 C235.680569,352.719905 233.507583,355.25782 231.045498,357.499526 C228.583412,359.745972 226.050237,361.663033 223.443602,363.25545 C220.834597,364.850237 216.998104,366.698578 211.929384,368.795735 L211.711374,382.591943 C211.711374,387.151185 211.749289,391.565877 211.820379,395.843128 C203.927014,395.696209 197.666351,395.622749 193.03128,395.622749 C188.396209,395.622749 181.552607,395.696209 172.502844,395.843128 C172.865403,390.772038 173.045498,384.362085 173.045498,376.61564 L173.045498,372.163033 C167.180569,371.364455 162.275355,370.535071 158.327488,369.665403 C154.381991,368.795735 149.547867,367.418957 143.827488,365.537441 C143.320379,347.364455 142.74218,334.873934 142.090521,328.068246" id="Fill-9" fill="#4D4D4F"></path>
                <mask id="mask-2" fill="white">
                    <use xlink:href="#path-1"></use>
                </mask>
                <g id="Clip-12"></g>
                <polygon id="Fill-11" fill="#007863" mask="url(#mask-2)" points="117.78436 556.682464 497.834123 556.682464 497.834123 437.511848 117.78436 437.511848"></polygon>
                <polygon id="Fill-13" fill="#00A083" mask="url(#mask-2)" points="117.78436 535.864929 497.834123 535.864929 497.834123 416.694313 117.78436 416.694313"></polygon>
                <path d="M477.196209,504.646682 L477.196209,447.914455 C458.229384,447.914455 442.854976,439.184597 442.854976,428.414455 L172.764929,428.414455 C172.764929,439.184597 157.390521,447.914455 138.423697,447.914455 L138.423697,504.646682 C157.390521,504.646682 172.764929,513.37654 172.764929,524.146682 L442.854976,524.146682 C442.854976,513.37654 458.229384,504.646682 477.196209,504.646682" id="Fill-14" fill="#007863" mask="url(#mask-2)"></path>
                <path d="M366.254502,476.280095 C366.254502,494.609479 340.088626,509.467299 307.809005,509.467299 C275.531754,509.467299 249.363507,494.609479 249.363507,476.280095 C249.363507,457.950711 275.531754,443.092891 307.809005,443.092891 C340.088626,443.092891 366.254502,457.950711 366.254502,476.280095" id="Fill-15" fill="#00A083" mask="url(#mask-2)"></path>
                <path d="M288.767062,482.663744 C291.428199,483.343839 293.871327,483.83673 296.098815,484.144787 C298.326303,484.452844 300.238626,484.606872 301.842891,484.606872 C303.255213,484.606872 304.463744,484.41019 305.468483,484.016825 C306.470853,483.625829 306.975592,483.080806 306.975592,482.388863 C306.975592,482.220616 306.940047,482.045261 306.873697,481.869905 C306.804976,481.69218 306.703081,481.526303 306.568009,481.372275 C306.430569,481.218246 306.214929,481.021564 305.916351,480.782227 C305.615403,480.542891 305.357109,480.362796 305.141469,480.239573 C304.92346,480.116351 304.056161,479.637678 302.534834,478.805924 C298.191232,476.419668 295.297867,474.732464 293.859479,473.746682 C292.745735,472.97654 291.883175,472.116351 291.271801,471.168483 C290.660427,470.222986 290.354739,469.294076 290.354739,468.384123 C290.354739,467.675592 290.539573,466.97891 290.904502,466.294076 C291.271801,465.609242 291.807346,464.957583 292.515877,464.341469 C293.219668,463.725355 294.068009,463.170853 295.0609,462.677962 C296.051422,462.185071 297.1391,461.779858 298.319194,461.464692 C299.499289,461.149526 301.257583,460.820142 303.594076,460.483649 C303.648578,459.988389 303.674645,459.696919 303.674645,459.604502 L303.63436,458.099763 L303.63436,455.462322 C306.594076,455.495498 309.053791,455.509716 311.008768,455.509716 C313.179384,455.509716 315.622512,455.495498 318.338152,455.462322 C318.203081,457.175592 318.13673,458.177962 318.13673,458.471801 L318.13673,460.459953 C320.823934,460.675592 323.473223,460.990758 326.077488,461.40782 C326.269431,463.898341 326.527725,466.48128 326.85237,469.156635 C324.653318,468.585545 322.622512,468.177962 320.762322,467.931517 C318.902133,467.682701 317.361848,467.559479 316.1391,467.559479 C314.755213,467.559479 313.605924,467.741943 312.698341,468.102133 C311.788389,468.467062 311.333412,468.933886 311.333412,469.502607 C311.333412,469.995498 311.598815,470.459953 312.127251,470.891232 C312.658057,471.322512 313.409242,471.801185 314.387915,472.324882 C317.91872,474.206398 320.518246,475.708768 322.188863,476.83673 C323.859479,477.959953 325.032464,479.028673 325.712559,480.038152 C326.390284,481.04763 326.729147,482.04763 326.729147,483.033412 C326.729147,483.850948 326.546682,484.61872 326.179384,485.33436 C325.814455,486.05237 325.27654,486.711137 324.570379,487.313033 C323.866588,487.914929 323.051422,488.452844 322.127251,488.931517 C321.203081,489.41019 320.252844,489.820142 319.27654,490.159005 C318.297867,490.497867 316.859479,490.891232 314.959005,491.3391 L314.878436,494.275118 C314.878436,495.246682 314.890284,496.187441 314.91872,497.097393 C311.956635,497.066588 309.608294,497.05 307.871327,497.05 C306.13436,497.05 303.56564,497.066588 300.172275,497.097393 C300.307346,496.016825 300.376066,494.651896 300.376066,493.002607 L300.376066,492.054739 C298.177014,491.884123 296.335782,491.706398 294.857109,491.521564 C293.376066,491.3391 291.56327,491.045261 289.41872,490.642417 C289.229147,486.772749 289.011137,484.113981 288.767062,482.663744" id="Fill-16" fill="#FFFAD1" mask="url(#mask-2)"></path>
                <path d="M381.233886,408.833649 C369.338152,401.75782 351.129621,397.227014 330.70545,397.227014 C310.283649,397.227014 292.075118,401.75782 280.177014,408.833649 L265.809716,408.833649 L265.809716,428.366825 C265.809716,445.563507 294.864218,459.506635 330.70545,459.506635 C366.546682,459.506635 395.603555,445.563507 395.603555,428.366825 L395.603555,408.833649 L381.233886,408.833649 Z" id="Fill-17" fill="#C99B36" mask="url(#mask-2)"></path>
                <path d="M395.603318,408.833649 C395.603318,426.032701 366.546445,439.97346 330.705213,439.97346 C294.863981,439.97346 265.809479,426.032701 265.809479,408.833649 C265.809479,391.636967 294.863981,377.693839 330.705213,377.693839 C366.546445,377.693839 395.603318,391.636967 395.603318,408.833649" id="Fill-18" fill="#F7CA41" mask="url(#mask-2)"></path>
                <path d="M309.560664,414.823934 C312.51564,415.461374 315.22891,415.92346 317.702844,416.212559 C320.174408,416.501659 322.3,416.648578 324.079621,416.648578 C325.648341,416.648578 326.989573,416.463744 328.105687,416.094076 C329.219431,415.724408 329.778673,415.217299 329.778673,414.56564 C329.778673,414.406872 329.740758,414.243365 329.664929,414.077488 C329.5891,413.911611 329.477725,413.755213 329.326066,413.613033 C329.174408,413.466114 328.935071,413.283649 328.603318,413.058531 C328.271564,412.835782 327.982464,412.665166 327.743128,412.549052 C327.501422,412.432938 326.536967,411.985071 324.849763,411.20545 C320.025118,408.963744 316.814218,407.380806 315.214692,406.456635 C313.977725,405.733886 313.020379,404.928199 312.342654,404.039573 C311.664929,403.150948 311.326066,402.27891 311.326066,401.425829 C311.326066,400.759953 311.529858,400.108294 311.935071,399.463744 C312.342654,398.821564 312.937441,398.21019 313.721801,397.631991 C314.506161,397.053791 315.449289,396.532464 316.548815,396.070379 C317.650711,395.608294 318.854502,395.229147 320.167299,394.932938 C321.480095,394.63673 323.430332,394.328673 326.025118,394.011137 C326.08436,393.546682 326.115166,393.274171 326.115166,393.186493 L326.070142,391.774171 L326.070142,389.300237 C329.356872,389.331043 332.08673,389.345261 334.257346,389.345261 C336.667299,389.345261 339.380569,389.331043 342.397156,389.300237 C342.245498,390.906872 342.172038,391.84763 342.172038,392.122512 L342.172038,393.98981 C345.15545,394.191232 348.096209,394.487441 350.991943,394.878436 C351.202844,397.217299 351.489573,399.6391 351.852133,402.148578 C349.409005,401.613033 347.153081,401.231517 345.0891,400.999289 C343.025118,400.767062 341.311848,400.653318 339.956398,400.653318 C338.418483,400.653318 337.143602,400.821564 336.134123,401.162796 C335.124645,401.501659 334.617536,401.940047 334.617536,402.475592 C334.617536,402.937678 334.911374,403.371327 335.499052,403.77654 C336.08673,404.181754 336.925592,404.631991 338.0109,405.122512 C341.930332,406.887915 344.816588,408.297867 346.672038,409.354739 C348.525118,410.411611 349.830806,411.413981 350.58436,412.359479 C351.337915,413.307346 351.714692,414.245735 351.714692,415.169905 C351.714692,415.937678 351.5109,416.658057 351.103318,417.331043 C350.698104,418.004028 350.100948,418.622512 349.316588,419.186493 C348.532227,419.750474 347.629384,420.257583 346.603318,420.70545 C345.579621,421.153318 344.522749,421.537204 343.437441,421.854739 C342.352133,422.174645 340.754976,422.544313 338.643602,422.963744 L338.553555,425.719668 C338.553555,426.629621 338.567773,427.511137 338.598578,428.366588 C335.311848,428.338152 332.702844,428.323934 330.773934,428.323934 C328.845024,428.323934 325.994313,428.338152 322.22654,428.366588 C322.375829,427.354739 322.451659,426.072749 322.451659,424.525355 L322.451659,423.63436 C320.008531,423.475592 317.965877,423.309716 316.323697,423.13673 C314.679147,422.963744 312.667299,422.686493 310.285782,422.312085 C310.072512,418.679384 309.833175,416.184123 309.560664,414.823934" id="Fill-19" fill="#FFFAD1" mask="url(#mask-2)"></path>
                <path d="M381.233886,384.03673 C369.338152,376.9609 351.129621,372.430095 330.70545,372.430095 C310.283649,372.430095 292.075118,376.9609 280.177014,384.03673 L265.809716,384.03673 L265.809716,403.569905 C265.809716,420.766588 294.864218,434.709716 330.70545,434.709716 C366.546682,434.709716 395.603555,420.766588 395.603555,403.569905 L395.603555,384.03673 L381.233886,384.03673 Z" id="Fill-20" fill="#C99B36" mask="url(#mask-2)"></path>
                <path d="M395.603318,384.03673 C395.603318,401.235782 366.546445,415.17654 330.705213,415.17654 C294.863981,415.17654 265.809479,401.235782 265.809479,384.03673 C265.809479,366.840047 294.863981,352.896919 330.705213,352.896919 C366.546445,352.896919 395.603318,366.840047 395.603318,384.03673" id="Fill-21" fill="#F7CA41" mask="url(#mask-2)"></path>
                <path d="M309.560664,390.027962 C312.51564,390.665403 315.22891,391.127488 317.702844,391.416588 C320.174408,391.705687 322.3,391.850237 324.079621,391.850237 C325.648341,391.850237 326.989573,391.665403 328.105687,391.298104 C329.219431,390.928436 329.778673,390.418957 329.778673,389.769668 C329.778673,389.6109 329.740758,389.447393 329.664929,389.281517 C329.5891,389.11564 329.477725,388.959242 329.326066,388.814692 C329.174408,388.670142 328.935071,388.485308 328.603318,388.262559 C328.271564,388.037441 327.982464,387.869194 327.743128,387.753081 C327.501422,387.636967 326.536967,387.1891 324.849763,386.407109 C320.025118,384.167773 316.814218,382.584834 315.214692,381.660664 C313.977725,380.937915 313.020379,380.132227 312.342654,379.241232 C311.664929,378.352607 311.326066,377.482938 311.326066,376.629858 C311.326066,375.963981 311.529858,375.309953 311.935071,374.667773 C312.342654,374.025592 312.937441,373.414218 313.721801,372.836019 C314.506161,372.25545 315.449289,371.736493 316.548815,371.272038 C317.650711,370.812322 318.854502,370.430806 320.167299,370.134597 C321.480095,369.838389 323.430332,369.532701 326.025118,369.212796 C326.08436,368.750711 326.115166,368.475829 326.115166,368.390521 L326.070142,366.978199 L326.070142,364.504265 C329.356872,364.535071 332.08673,364.549289 334.257346,364.549289 C336.667299,364.549289 339.380569,364.535071 342.397156,364.504265 C342.245498,366.1109 342.172038,367.051659 342.172038,367.32654 L342.172038,369.193839 C345.15545,369.395261 348.096209,369.691469 350.991943,370.082464 C351.202844,372.418957 351.489573,374.843128 351.852133,377.352607 C349.409005,376.817062 347.153081,376.433175 345.0891,376.203318 C343.025118,375.97109 341.311848,375.854976 339.956398,375.854976 C338.418483,375.854976 337.143602,376.025592 336.134123,376.364455 C335.124645,376.705687 334.617536,377.144076 334.617536,377.679621 C334.617536,378.141706 334.911374,378.575355 335.499052,378.980569 C336.08673,379.385782 336.925592,379.833649 338.0109,380.32654 C341.930332,382.091943 344.816588,383.501896 346.672038,384.556398 C348.525118,385.61327 349.830806,386.618009 350.58436,387.563507 C351.337915,388.511374 351.714692,389.449763 351.714692,390.373934 C351.714692,391.141706 351.5109,391.859716 351.103318,392.535071 C350.698104,393.205687 350.100948,393.82654 349.316588,394.388152 C348.532227,394.954502 347.629384,395.459242 346.603318,395.907109 C345.579621,396.357346 344.522749,396.741232 343.437441,397.058768 C342.352133,397.378673 340.754976,397.745972 338.643602,398.165403 L338.553555,400.921327 C338.553555,401.833649 338.567773,402.715166 338.598578,403.570616 C335.311848,403.54218 332.702844,403.525592 330.773934,403.525592 C328.845024,403.525592 325.994313,403.54218 322.22654,403.570616 C322.375829,402.556398 322.451659,401.276777 322.451659,399.729384 L322.451659,398.838389 C320.008531,398.679621 317.965877,398.513744 316.323697,398.338389 C314.679147,398.165403 312.667299,397.890521 310.285782,397.513744 C310.072512,393.883412 309.833175,391.388152 309.560664,390.027962" id="Fill-22" fill="#FFFAD1" mask="url(#mask-2)"></path>
                <path d="M381.233886,359.240758 C369.338152,352.164929 351.129621,347.634123 330.70545,347.634123 C310.283649,347.634123 292.075118,352.164929 280.177014,359.240758 L265.809716,359.240758 L265.809716,378.773934 C265.809716,395.970616 294.864218,409.913744 330.70545,409.913744 C366.546682,409.913744 395.603555,395.970616 395.603555,378.773934 L395.603555,359.240758 L381.233886,359.240758 Z" id="Fill-23" fill="#C99B36" mask="url(#mask-2)"></path>
                <path d="M395.603318,359.240758 C395.603318,376.43981 366.546445,390.380569 330.705213,390.380569 C294.863981,390.380569 265.809479,376.43981 265.809479,359.240758 C265.809479,342.041706 294.863981,328.100948 330.705213,328.100948 C366.546445,328.100948 395.603318,342.041706 395.603318,359.240758" id="Fill-24" fill="#F7CA41" mask="url(#mask-2)"></path>
                <path d="M309.560664,365.230806 C312.51564,365.868246 315.22891,366.330332 317.702844,366.619431 C320.174408,366.908531 322.3,367.05545 324.079621,367.05545 C325.648341,367.05545 326.989573,366.870616 328.105687,366.500948 C329.219431,366.13128 329.778673,365.621801 329.778673,364.972512 C329.778673,364.813744 329.740758,364.650237 329.664929,364.48436 C329.5891,364.318483 329.477725,364.162085 329.326066,364.017536 C329.174408,363.872986 328.935071,363.690521 328.603318,363.465403 C328.271564,363.242654 327.982464,363.072038 327.743128,362.955924 C327.501422,362.83981 326.536967,362.391943 324.849763,361.612322 C320.025118,359.370616 316.814218,357.787678 315.214692,356.863507 C313.977725,356.140758 313.020379,355.335071 312.342654,354.446445 C311.664929,353.55782 311.326066,352.685782 311.326066,351.832701 C311.326066,351.166825 311.529858,350.515166 311.935071,349.870616 C312.342654,349.228436 312.937441,348.617062 313.721801,348.038863 C314.506161,347.460664 315.449289,346.939336 316.548815,346.477251 C317.650711,346.015166 318.854502,345.633649 320.167299,345.33981 C321.480095,345.043602 323.430332,344.735545 326.025118,344.418009 C326.08436,343.953555 326.115166,343.681043 326.115166,343.593365 L326.070142,342.181043 L326.070142,339.707109 C329.356872,339.737915 332.08673,339.752133 334.257346,339.752133 C336.667299,339.752133 339.380569,339.737915 342.397156,339.707109 C342.245498,341.313744 342.172038,342.254502 342.172038,342.529384 L342.172038,344.396682 C345.15545,344.598104 348.096209,344.894313 350.991943,345.285308 C351.202844,347.621801 351.489573,350.045972 351.852133,352.55545 C349.409005,352.019905 347.153081,351.638389 345.0891,351.406161 C343.025118,351.173934 341.311848,351.06019 339.956398,351.06019 C338.418483,351.06019 337.143602,351.228436 336.134123,351.567299 C335.124645,351.908531 334.617536,352.346919 334.617536,352.882464 C334.617536,353.34455 334.911374,353.778199 335.499052,354.183412 C336.08673,354.588626 336.925592,355.036493 338.0109,355.529384 C341.930332,357.294787 344.816588,358.704739 346.672038,359.761611 C348.525118,360.818483 349.830806,361.820853 350.58436,362.766351 C351.337915,363.714218 351.714692,364.652607 351.714692,365.576777 C351.714692,366.34455 351.5109,367.064929 351.103318,367.737915 C350.698104,368.408531 350.100948,369.029384 349.316588,369.593365 C348.532227,370.157346 347.629384,370.662085 346.603318,371.112322 C345.579621,371.56019 344.522749,371.944076 343.437441,372.261611 C342.352133,372.581517 340.754976,372.948815 338.643602,373.370616 L338.553555,376.12654 C338.553555,377.036493 338.567773,377.918009 338.598578,378.77346 C335.311848,378.745024 332.702844,378.730806 330.773934,378.730806 C328.845024,378.730806 325.994313,378.745024 322.22654,378.77346 C322.375829,377.761611 322.451659,376.479621 322.451659,374.932227 L322.451659,374.041232 C320.008531,373.882464 317.965877,373.716588 316.323697,373.543602 C314.679147,373.370616 312.667299,373.093365 310.285782,372.718957 C310.072512,369.086256 309.833175,366.590995 309.560664,365.230806" id="Fill-25" fill="#FFFAD1" mask="url(#mask-2)"></path>
                <path d="M381.233886,334.443839 C369.338152,327.368009 351.129621,322.837204 330.70545,322.837204 C310.283649,322.837204 292.075118,327.368009 280.177014,334.443839 L265.809716,334.443839 L265.809716,353.977014 C265.809716,371.176066 294.864218,385.116825 330.70545,385.116825 C366.546682,385.116825 395.603555,371.176066 395.603555,353.977014 L395.603555,334.443839 L381.233886,334.443839 Z" id="Fill-26" fill="#C99B36" mask="url(#mask-2)"></path>
                <path d="M395.603318,334.443839 C395.603318,351.642891 366.546445,365.583649 330.705213,365.583649 C294.863981,365.583649 265.809479,351.642891 265.809479,334.443839 C265.809479,317.247156 294.863981,303.304028 330.705213,303.304028 C366.546445,303.304028 395.603318,317.247156 395.603318,334.443839" id="Fill-27" fill="#F7CA41" mask="url(#mask-2)"></path>
                <path d="M309.560664,340.435071 C312.51564,341.072512 315.22891,341.532227 317.702844,341.823697 C320.174408,342.112796 322.3,342.257346 324.079621,342.257346 C325.648341,342.257346 326.989573,342.072512 328.105687,341.705213 C329.219431,341.335545 329.778673,340.826066 329.778673,340.176777 C329.778673,340.018009 329.740758,339.854502 329.664929,339.688626 C329.5891,339.522749 329.477725,339.366351 329.326066,339.221801 C329.174408,339.077251 328.935071,338.892417 328.603318,338.669668 C328.271564,338.44455 327.982464,338.273934 327.743128,338.16019 C327.501422,338.044076 326.536967,337.596209 324.849763,336.814218 C320.025118,334.574882 316.814218,332.991943 315.214692,332.065403 C313.977725,331.345024 313.020379,330.539336 312.342654,329.648341 C311.664929,328.759716 311.326066,327.890047 311.326066,327.036967 C311.326066,326.37109 311.529858,325.719431 311.935071,325.074882 C312.342654,324.430332 312.937441,323.818957 313.721801,323.243128 C314.506161,322.662559 315.449289,322.143602 316.548815,321.679147 C317.650711,321.219431 318.854502,320.837915 320.167299,320.541706 C321.480095,320.245498 323.430332,319.93981 326.025118,319.619905 C326.08436,319.15782 326.115166,318.882938 326.115166,318.79763 L326.070142,317.385308 L326.070142,314.911374 C329.356872,314.94218 332.08673,314.954028 334.257346,314.954028 C336.667299,314.954028 339.380569,314.94218 342.397156,314.911374 C342.245498,316.518009 342.172038,317.458768 342.172038,317.733649 L342.172038,319.598578 C345.15545,319.80237 348.096209,320.096209 350.991943,320.489573 C351.202844,322.826066 351.489573,325.250237 351.852133,327.759716 C349.409005,327.224171 347.153081,326.840284 345.0891,326.610427 C343.025118,326.378199 341.311848,326.262085 339.956398,326.262085 C338.418483,326.262085 337.143602,326.432701 336.134123,326.771564 C335.124645,327.112796 334.617536,327.551185 334.617536,328.08436 C334.617536,328.548815 334.911374,328.982464 335.499052,329.387678 C336.08673,329.792891 336.925592,330.240758 338.0109,330.733649 C341.930332,332.499052 344.816588,333.909005 346.672038,334.963507 C348.525118,336.020379 349.830806,337.025118 350.58436,337.970616 C351.337915,338.918483 351.714692,339.854502 351.714692,340.781043 C351.714692,341.548815 351.5109,342.266825 351.103318,342.93981 C350.698104,343.612796 350.100948,344.23128 349.316588,344.795261 C348.532227,345.361611 347.629384,345.866351 346.603318,346.314218 C345.579621,346.764455 344.522749,347.148341 343.437441,347.465877 C342.352133,347.785782 340.754976,348.153081 338.643602,348.572512 L338.553555,351.328436 C338.553555,352.240758 338.567773,353.122275 338.598578,353.977725 C335.311848,353.946919 332.702844,353.932701 330.773934,353.932701 C328.845024,353.932701 325.994313,353.946919 322.22654,353.977725 C322.375829,352.963507 322.451659,351.683886 322.451659,350.134123 L322.451659,349.245498 C320.008531,349.08673 317.965877,348.920853 316.323697,348.745498 C314.679147,348.572512 312.667299,348.29763 310.285782,347.920853 C310.072512,344.290521 309.833175,341.795261 309.560664,340.435071" id="Fill-28" fill="#FFFAD1" mask="url(#mask-2)"></path>
                <path d="M381.233886,309.647867 C369.338152,302.572038 351.129621,298.041232 330.70545,298.041232 C310.283649,298.041232 292.075118,302.572038 280.177014,309.647867 L265.809716,309.647867 L265.809716,329.181043 C265.809716,346.377725 294.864218,360.320853 330.70545,360.320853 C366.546682,360.320853 395.603555,346.377725 395.603555,329.181043 L395.603555,309.647867 L381.233886,309.647867 Z" id="Fill-29" fill="#C99B36" mask="url(#mask-2)"></path>
                <path d="M395.603318,309.647867 C395.603318,326.846919 366.546445,340.787678 330.705213,340.787678 C294.863981,340.787678 265.809479,326.846919 265.809479,309.647867 C265.809479,292.448815 294.863981,278.508057 330.705213,278.508057 C366.546445,278.508057 395.603318,292.448815 395.603318,309.647867" id="Fill-30" fill="#F7CA41" mask="url(#mask-2)"></path>
                <path d="M309.560664,315.637915 C312.51564,316.275355 315.22891,316.737441 317.702844,317.02654 C320.174408,317.31564 322.3,317.46019 324.079621,317.46019 C325.648341,317.46019 326.989573,317.275355 328.105687,316.908057 C329.219431,316.538389 329.778673,316.02891 329.778673,315.379621 C329.778673,315.220853 329.740758,315.057346 329.664929,314.891469 C329.5891,314.725592 329.477725,314.569194 329.326066,314.424645 C329.174408,314.280095 328.935071,314.09763 328.603318,313.872512 C328.271564,313.649763 327.982464,313.476777 327.743128,313.363033 C327.501422,313.246919 326.536967,312.799052 324.849763,312.019431 C320.025118,309.777725 316.814218,308.194787 315.214692,307.270616 C313.977725,306.547867 313.020379,305.74218 312.342654,304.851185 C311.664929,303.962559 311.326066,303.092891 311.326066,302.23981 C311.326066,301.573934 311.529858,300.922275 311.935071,300.277725 C312.342654,299.635545 312.937441,299.021801 313.721801,298.445972 C314.506161,297.867773 315.449289,297.346445 316.548815,296.881991 C317.650711,296.422275 318.854502,296.040758 320.167299,295.746919 C321.480095,295.448341 323.430332,295.142654 326.025118,294.822749 C326.08436,294.360664 326.115166,294.085782 326.115166,294.000474 L326.070142,292.588152 L326.070142,290.114218 C329.356872,290.145024 332.08673,290.159242 334.257346,290.159242 C336.667299,290.159242 339.380569,290.145024 342.397156,290.114218 C342.245498,291.720853 342.172038,292.661611 342.172038,292.936493 L342.172038,294.803791 C345.15545,295.005213 348.096209,295.301422 350.991943,295.692417 C351.202844,298.02891 351.489573,300.453081 351.852133,302.962559 C349.409005,302.427014 347.153081,302.045498 345.0891,301.81327 C343.025118,301.581043 341.311848,301.464929 339.956398,301.464929 C338.418483,301.464929 337.143602,301.635545 336.134123,301.974408 C335.124645,302.31564 334.617536,302.754028 334.617536,303.289573 C334.617536,303.751659 334.911374,304.185308 335.499052,304.590521 C336.08673,304.995735 336.925592,305.443602 338.0109,305.936493 C341.930332,307.701896 344.816588,309.111848 346.672038,310.16872 C348.525118,311.223223 349.830806,312.227962 350.58436,313.17346 C351.337915,314.121327 351.714692,315.059716 351.714692,315.983886 C351.714692,316.751659 351.5109,317.469668 351.103318,318.145024 C350.698104,318.81564 350.100948,319.436493 349.316588,319.998104 C348.532227,320.564455 347.629384,321.069194 346.603318,321.517062 C345.579621,321.967299 344.522749,322.351185 343.437441,322.66872 C342.352133,322.988626 340.754976,323.355924 338.643602,323.775355 L338.553555,326.533649 C338.553555,327.443602 338.567773,328.325118 338.598578,329.180569 C335.311848,329.152133 332.702844,329.135545 330.773934,329.135545 C328.845024,329.135545 325.994313,329.152133 322.22654,329.180569 C322.375829,328.16872 322.451659,326.88673 322.451659,325.336967 L322.451659,324.448341 C320.008531,324.289573 317.965877,324.123697 316.323697,323.950711 C314.679147,323.775355 312.667299,323.500474 310.285782,323.126066 C310.072512,319.493365 309.833175,316.998104 309.560664,315.637915" id="Fill-31" fill="#FFFAD1" mask="url(#mask-2)"></path>
                <path d="M483.465166,430.207109 C471.569431,423.13128 453.358531,418.600474 432.93673,418.600474 C412.514929,418.600474 394.306398,423.13128 382.408294,430.207109 L368.040995,430.207109 L368.040995,449.740284 C368.040995,466.936967 397.095498,480.880095 432.93673,480.880095 C468.777962,480.880095 497.834834,466.936967 497.834834,449.740284 L497.834834,430.207109 L483.465166,430.207109 Z" id="Fill-32" fill="#C99B36" mask="url(#mask-2)"></path>
                <path d="M497.834597,430.207109 C497.834597,447.406161 468.777725,461.349289 432.936493,461.349289 C397.095261,461.349289 368.040758,447.406161 368.040758,430.207109 C368.040758,413.010427 397.095261,399.067299 432.936493,399.067299 C468.777725,399.067299 497.834597,413.010427 497.834597,430.207109" id="Fill-33" fill="#F7CA41" mask="url(#mask-2)"></path>
                <path d="M411.791943,436.198341 C414.749289,436.835782 417.462559,437.297867 419.934123,437.586967 C422.405687,437.876066 424.53128,438.020616 426.3109,438.020616 C427.879621,438.020616 429.220853,437.835782 430.336967,437.468483 C431.450711,437.098815 432.009953,436.589336 432.009953,435.940047 C432.009953,435.78128 431.972038,435.617773 431.896209,435.451896 C431.820379,435.286019 431.706635,435.129621 431.557346,434.985071 C431.405687,434.840521 431.166351,434.655687 430.834597,434.430569 C430.502844,434.20782 430.216114,434.037204 429.974408,433.92346 C429.732701,433.807346 428.768246,433.357109 427.081043,432.577488 C422.256398,430.338152 419.045498,428.755213 417.445972,427.831043 C416.209005,427.108294 415.251659,426.302607 414.573934,425.411611 C413.896209,424.522986 413.557346,423.653318 413.557346,422.800237 C413.557346,422.13436 413.761137,421.480332 414.166351,420.838152 C414.573934,420.195972 415.16872,419.582227 415.953081,419.006398 C416.737441,418.425829 417.678199,417.906872 418.780095,417.444787 C419.879621,416.982701 421.088152,416.601185 422.398578,416.304976 C423.709005,416.008768 425.663981,415.703081 428.256398,415.383175 C428.31564,414.92109 428.346445,414.646209 428.346445,414.5609 L428.301422,413.148578 L428.301422,410.674645 C431.588152,410.70545 434.31564,410.717299 436.488626,410.717299 C438.900948,410.717299 441.614218,410.70545 444.628436,410.674645 C444.476777,412.28128 444.403318,413.222038 444.403318,413.496919 L444.403318,415.364218 C447.38673,415.56564 450.327488,415.861848 453.223223,416.252844 C453.434123,418.589336 453.720853,421.013507 454.083412,423.522986 C451.637915,422.987441 449.38436,422.603555 447.320379,422.373697 C445.254028,422.141469 443.543128,422.025355 442.187678,422.025355 C440.649763,422.025355 439.374882,422.195972 438.365403,422.534834 C437.353555,422.876066 436.848815,423.314455 436.848815,423.85 C436.848815,424.312085 437.142654,424.745735 437.730332,425.150948 C438.320379,425.556161 439.156872,426.004028 440.24218,426.496919 C444.161611,428.262322 447.047867,429.672275 448.903318,430.729147 C450.756398,431.783649 452.062085,432.788389 452.81564,433.733886 C453.569194,434.681754 453.945972,435.617773 453.945972,436.544313 C453.945972,437.312085 453.74218,438.030095 453.336967,438.70545 C452.929384,439.376066 452.332227,439.996919 451.547867,440.558531 C450.765877,441.124882 449.860664,441.629621 448.834597,442.077488 C447.808531,442.527725 446.754028,442.911611 445.66872,443.229147 C444.583412,443.549052 442.986256,443.916351 440.874882,444.335782 L440.784834,447.091706 C440.784834,448.004028 440.799052,448.885545 440.829858,449.740995 C437.543128,449.71019 434.934123,449.695972 433.005213,449.695972 C431.073934,449.695972 428.225592,449.71019 424.45782,449.740995 C424.607109,448.726777 424.682938,447.447156 424.682938,445.899763 L424.682938,445.008768 C422.23981,444.85 420.197156,444.684123 418.554976,444.508768 C416.910427,444.335782 414.898578,444.0609 412.514692,443.684123 C412.303791,440.053791 412.064455,437.558531 411.791943,436.198341" id="Fill-34" fill="#FFFAD1" mask="url(#mask-2)"></path>
                <path d="M483.465166,405.411137 C471.569431,398.335308 453.358531,393.804502 432.93673,393.804502 C412.514929,393.804502 394.306398,398.335308 382.408294,405.411137 L368.040995,405.411137 L368.040995,424.944313 C368.040995,442.140995 397.095498,456.084123 432.93673,456.084123 C468.777962,456.084123 497.834834,442.140995 497.834834,424.944313 L497.834834,405.411137 L483.465166,405.411137 Z" id="Fill-35" fill="#C99B36" mask="url(#mask-2)"></path>
                <path d="M497.834597,405.411137 C497.834597,422.60782 468.777725,436.550948 432.936493,436.550948 C397.095261,436.550948 368.040758,422.60782 368.040758,405.411137 C368.040758,388.212085 397.095261,374.271327 432.936493,374.271327 C468.777725,374.271327 497.834597,388.212085 497.834597,405.411137" id="Fill-36" fill="#F7CA41" mask="url(#mask-2)"></path>
                <path d="M411.791943,411.401185 C414.749289,412.038626 417.462559,412.500711 419.934123,412.78981 C422.405687,413.07891 424.53128,413.225829 426.3109,413.225829 C427.879621,413.225829 429.220853,413.040995 430.336967,412.671327 C431.450711,412.301659 432.009953,411.79218 432.009953,411.142891 C432.009953,410.984123 431.972038,410.820616 431.896209,410.654739 C431.820379,410.488863 431.706635,410.332464 431.557346,410.187915 C431.405687,410.043365 431.166351,409.8609 430.834597,409.635782 C430.502844,409.410664 430.216114,409.242417 429.974408,409.126303 C429.732701,409.01019 428.768246,408.562322 427.081043,407.782701 C422.256398,405.540995 419.045498,403.958057 417.445972,403.033886 C416.209005,402.311137 415.251659,401.50545 414.573934,400.614455 C413.896209,399.725829 413.557346,398.856161 413.557346,398.003081 C413.557346,397.337204 413.761137,396.685545 414.166351,396.040995 C414.573934,395.398815 415.16872,394.787441 415.953081,394.209242 C416.737441,393.631043 417.678199,393.109716 418.780095,392.64763 C419.879621,392.185545 421.088152,391.804028 422.398578,391.51019 C423.709005,391.213981 425.663981,390.905924 428.256398,390.588389 C428.31564,390.123934 428.346445,389.849052 428.346445,389.763744 L428.301422,388.351422 L428.301422,385.877488 C431.588152,385.908294 434.31564,385.922512 436.488626,385.922512 C438.900948,385.922512 441.614218,385.908294 444.628436,385.877488 C444.476777,387.484123 444.403318,388.424882 444.403318,388.699763 L444.403318,390.567062 C447.38673,390.768483 450.327488,391.064692 453.223223,391.455687 C453.434123,393.79218 453.720853,396.216351 454.083412,398.725829 C451.637915,398.190284 449.38436,397.806398 447.320379,397.57654 C445.254028,397.344313 443.543128,397.228199 442.187678,397.228199 C440.649763,397.228199 439.374882,397.398815 438.365403,397.737678 C437.353555,398.07891 436.848815,398.517299 436.848815,399.052844 C436.848815,399.514929 437.142654,399.948578 437.730332,400.353791 C438.320379,400.759005 439.156872,401.209242 440.24218,401.699763 C444.161611,403.465166 447.047867,404.875118 448.903318,405.931991 C450.756398,406.988863 452.062085,407.991232 452.81564,408.93673 C453.569194,409.884597 453.945972,410.822986 453.945972,411.747156 C453.945972,412.514929 453.74218,413.232938 453.336967,413.908294 C452.929384,414.57891 452.332227,415.199763 451.547867,415.763744 C450.765877,416.327725 449.860664,416.834834 448.834597,417.282701 C447.808531,417.730569 446.754028,418.114455 445.66872,418.431991 C444.583412,418.751896 442.986256,419.119194 440.874882,419.540995 L440.784834,422.296919 C440.784834,423.206872 440.799052,424.088389 440.829858,424.943839 C437.543128,424.915403 434.934123,424.901185 433.005213,424.901185 C431.073934,424.901185 428.225592,424.915403 424.45782,424.943839 C424.607109,423.931991 424.682938,422.65 424.682938,421.102607 L424.682938,420.211611 C422.23981,420.052844 420.197156,419.886967 418.554976,419.713981 C416.910427,419.540995 414.898578,419.263744 412.514692,418.889336 C412.303791,415.256635 412.064455,412.761374 411.791943,411.401185" id="Fill-37" fill="#FFFAD1" mask="url(#mask-2)"></path>
                <path d="M483.465166,380.613981 C471.569431,373.538152 453.358531,369.007346 432.93673,369.007346 C412.514929,369.007346 394.306398,373.538152 382.408294,380.613981 L368.040995,380.613981 L368.040995,400.147156 C368.040995,417.343839 397.095498,431.286967 432.93673,431.286967 C468.777962,431.286967 497.834834,417.343839 497.834834,400.147156 L497.834834,380.613981 L483.465166,380.613981 Z" id="Fill-38" fill="#C99B36" mask="url(#mask-2)"></path>
                <path d="M497.834597,380.613981 C497.834597,397.813033 468.777725,411.753791 432.936493,411.753791 C397.095261,411.753791 368.040758,397.813033 368.040758,380.613981 C368.040758,363.417299 397.095261,349.474171 432.936493,349.474171 C468.777725,349.474171 497.834597,363.417299 497.834597,380.613981" id="Fill-39" fill="#F7CA41" mask="url(#mask-2)"></path>
                <path d="M411.791943,386.604265 C414.749289,387.241706 417.462559,387.703791 419.934123,387.992891 C422.405687,388.281991 424.53128,388.42891 426.3109,388.42891 C427.879621,388.42891 429.220853,388.244076 430.336967,387.874408 C431.450711,387.507109 432.009953,386.99763 432.009953,386.345972 C432.009953,386.187204 431.972038,386.023697 431.896209,385.85782 C431.820379,385.691943 431.706635,385.535545 431.557346,385.393365 C431.405687,385.246445 431.166351,385.063981 430.834597,384.838863 C430.502844,384.616114 430.216114,384.445498 429.974408,384.329384 C429.732701,384.21327 428.768246,383.765403 427.081043,382.985782 C422.256398,380.744076 419.045498,379.161137 417.445972,378.236967 C416.209005,377.514218 415.251659,376.708531 414.573934,375.819905 C413.896209,374.93128 413.557346,374.059242 413.557346,373.206161 C413.557346,372.540284 413.761137,371.888626 414.166351,371.244076 C414.573934,370.601896 415.16872,369.990521 415.953081,369.412322 C416.737441,368.834123 417.678199,368.312796 418.780095,367.850711 C419.879621,367.388626 421.088152,367.009479 422.398578,366.71327 C423.709005,366.417062 425.663981,366.109005 428.256398,365.791469 C428.31564,365.327014 428.346445,365.054502 428.346445,364.966825 L428.301422,363.554502 L428.301422,361.080569 C431.588152,361.111374 434.31564,361.125592 436.488626,361.125592 C438.900948,361.125592 441.614218,361.111374 444.628436,361.080569 C444.476777,362.687204 444.403318,363.627962 444.403318,363.902844 L444.403318,365.770142 C447.38673,365.971564 450.327488,366.267773 453.223223,366.658768 C453.434123,368.99763 453.720853,371.419431 454.083412,373.92891 C451.637915,373.393365 449.38436,373.011848 447.320379,372.779621 C445.254028,372.547393 443.543128,372.433649 442.187678,372.433649 C440.649763,372.433649 439.374882,372.601896 438.365403,372.943128 C437.353555,373.281991 436.848815,373.720379 436.848815,374.255924 C436.848815,374.718009 437.142654,375.151659 437.730332,375.556872 C438.320379,375.962085 439.156872,376.412322 440.24218,376.902844 C444.161611,378.668246 447.047867,380.078199 448.903318,381.135071 C450.756398,382.191943 452.062085,383.194313 452.81564,384.13981 C453.569194,385.087678 453.945972,386.026066 453.945972,386.950237 C453.945972,387.718009 453.74218,388.438389 453.336967,389.111374 C452.929384,389.78436 452.332227,390.402844 451.547867,390.966825 C450.765877,391.530806 449.860664,392.037915 448.834597,392.485782 C447.808531,392.933649 446.754028,393.317536 445.66872,393.635071 C444.583412,393.954976 442.986256,394.324645 440.874882,394.744076 L440.784834,397.5 C440.784834,398.409953 440.799052,399.291469 440.829858,400.146919 C437.543128,400.118483 434.934123,400.104265 433.005213,400.104265 C431.073934,400.104265 428.225592,400.118483 424.45782,400.146919 C424.607109,399.135071 424.682938,397.853081 424.682938,396.305687 L424.682938,395.414692 C422.23981,395.255924 420.197156,395.090047 418.554976,394.917062 C416.910427,394.744076 414.898578,394.466825 412.514692,394.092417 C412.303791,390.459716 412.064455,387.964455 411.791943,386.604265" id="Fill-40" fill="#FFFAD1" mask="url(#mask-2)"></path>
                <path d="M357.38673,459.506161 C345.490995,452.430332 327.282464,447.899526 306.858294,447.899526 C286.436493,447.899526 268.227962,452.430332 256.329858,459.506161 L241.962559,459.506161 L241.962559,479.039336 C241.962559,496.236019 271.017062,510.179147 306.858294,510.179147 C342.699526,510.179147 371.754028,496.236019 371.754028,479.039336 L371.754028,459.506161 L357.38673,459.506161 Z" id="Fill-41" fill="#C99B36" mask="url(#mask-2)"></path>
                <path d="M371.755213,459.506161 C371.755213,476.705213 342.700711,490.648341 306.859479,490.648341 C271.018246,490.648341 241.961374,476.705213 241.961374,459.506161 C241.961374,442.309479 271.018246,428.366351 306.859479,428.366351 C342.700711,428.366351 371.755213,442.309479 371.755213,459.506161" id="Fill-42" fill="#F7CA41" mask="url(#mask-2)"></path>
                <path d="M285.713507,465.496445 C288.668483,466.133886 291.381754,466.595972 293.855687,466.885071 C296.327251,467.174171 298.452844,467.32109 300.232464,467.32109 C301.801185,467.32109 303.140047,467.136256 304.258531,466.766588 C305.372275,466.399289 305.931517,465.88981 305.931517,465.238152 C305.931517,465.079384 305.893602,464.915877 305.817773,464.75237 C305.741943,464.584123 305.630569,464.427725 305.47891,464.285545 C305.327251,464.138626 305.087915,463.956161 304.756161,463.731043 C304.424408,463.508294 304.135308,463.337678 303.895972,463.221564 C303.654265,463.10545 302.68981,462.657583 301.002607,461.877962 C296.177962,459.638626 292.967062,458.055687 291.367536,457.129147 C290.130569,456.408768 289.173223,455.600711 288.495498,454.712085 C287.817773,453.82346 287.47891,452.951422 287.47891,452.098341 C287.47891,451.432464 287.682701,450.780806 288.087915,450.138626 C288.495498,449.494076 289.090284,448.882701 289.874645,448.304502 C290.659005,447.726303 291.599763,447.204976 292.701659,446.742891 C293.801185,446.280806 295.007346,445.901659 296.320142,445.60545 C297.630569,445.309242 299.583175,445.001185 302.177962,444.683649 C302.237204,444.221564 302.268009,443.946682 302.268009,443.859005 L302.222986,442.449052 L302.222986,439.972749 C305.509716,440.003555 308.237204,440.017773 310.40782,440.017773 C312.820142,440.017773 315.533412,440.003555 318.55,439.972749 C318.398341,441.579384 318.324882,442.520142 318.324882,442.795024 L318.324882,444.662322 C321.308294,444.863744 324.249052,445.159953 327.142417,445.550948 C327.355687,447.88981 327.640047,450.311611 328.004976,452.82346 C325.559479,452.287915 323.305924,451.904028 321.241943,451.671801 C319.175592,451.439573 317.464692,451.325829 316.106872,451.325829 C314.571327,451.325829 313.296445,451.496445 312.286967,451.835308 C311.275118,452.174171 310.770379,452.612559 310.770379,453.148104 C310.770379,453.61019 311.064218,454.043839 311.651896,454.449052 C312.239573,454.854265 313.078436,455.304502 314.163744,455.795024 C318.083175,457.560427 320.969431,458.972749 322.824882,460.027251 C324.677962,461.084123 325.983649,462.086493 326.737204,463.031991 C327.490758,463.979858 327.867536,464.918246 327.867536,465.842417 C327.867536,466.61019 327.663744,467.330569 327.256161,468.003555 C326.848578,468.67654 326.253791,469.295024 325.469431,469.859005 C324.685071,470.422986 323.782227,470.930095 322.756161,471.377962 C321.732464,471.825829 320.675592,472.209716 319.590284,472.527251 C318.504976,472.847156 316.90782,473.216825 314.796445,473.636256 L314.706398,476.39218 C314.706398,477.302133 314.720616,478.183649 314.751422,479.0391 C311.464692,479.010664 308.855687,478.996445 306.926777,478.996445 C304.995498,478.996445 302.147156,479.010664 298.379384,479.0391 C298.528673,478.027251 298.604502,476.745261 298.604502,475.197867 L298.604502,474.309242 C296.161374,474.148104 294.11872,473.982227 292.47654,473.809242 C290.831991,473.636256 288.820142,473.361374 286.436256,472.984597 C286.225355,469.351896 285.986019,466.856635 285.713507,465.496445" id="Fill-43" fill="#FFFAD1" mask="url(#mask-2)"></path>
            </g>
        </g>
    </g>
</svg>